<svg width="30" height="30" viewBox="0 0 30 30" fill="none" xmlns="http://www.w3.org/2000/svg">
<path d="M10.5679 4.74192C11.4691 2.3352 15.1131 2.26232 16.1816 4.52326L16.272 4.7433L17.4882 7.98893C17.7669 8.73327 18.2173 9.41441 18.809 9.9864C19.4007 10.5584 20.1199 11.0079 20.9182 11.3047L21.2452 11.4161L24.8018 12.5246C27.4391 13.347 27.519 16.6724 25.0429 17.6474L24.8018 17.7299L21.2452 18.8398C20.4292 19.094 19.6826 19.5049 19.0555 20.0449C18.4284 20.5849 17.9356 21.2413 17.6102 21.9699L17.4882 22.267L16.2735 25.514C15.3723 27.9207 11.7283 27.9936 10.6613 25.734L10.5679 25.514L9.3532 22.2683C9.07467 21.5237 8.62436 20.8423 8.03265 20.2701C7.44095 19.6979 6.72161 19.2481 5.9232 18.9512L5.59768 18.8398L2.04109 17.7313C-0.597722 16.9089 -0.677594 13.5835 1.79996 12.6098L2.04109 12.5246L5.59768 11.4161C6.41334 11.1617 7.15974 10.7507 7.78653 10.2108C8.41332 9.67081 8.90593 9.01445 9.23113 8.28599L9.3532 7.98893L10.5679 4.74192ZM25.4769 2.48494e-07C25.7589 -3.24525e-07 26.0351 0.0721717 26.2744 0.208314C26.5136 0.344456 26.7062 0.539109 26.8302 0.77015L26.9026 0.931056L27.43 2.34208L28.9778 2.82342C29.2603 2.91102 29.508 3.07319 29.6894 3.28939C29.8709 3.50558 29.9779 3.76606 29.9969 4.03781C30.016 4.30957 29.9462 4.58037 29.7964 4.81589C29.6466 5.05142 29.4236 5.24106 29.1556 5.36079L28.9778 5.42681L27.4315 5.90815L26.9041 7.32055C26.8079 7.57831 26.6301 7.80423 26.3931 7.96966C26.1561 8.1351 25.8706 8.23261 25.5728 8.24985C25.275 8.26708 24.9784 8.20326 24.7204 8.06647C24.4624 7.92967 24.2547 7.72607 24.1236 7.48146L24.0513 7.32055L23.5238 5.90952L21.9761 5.42818C21.6936 5.34058 21.4459 5.17841 21.2644 4.96222C21.083 4.74603 20.976 4.48555 20.9569 4.21379C20.9379 3.94203 21.0077 3.67123 21.1574 3.43571C21.3072 3.20019 21.5303 3.01054 21.7983 2.89081L21.9761 2.8248L23.5223 2.34346L24.0498 0.931056C24.1514 0.659338 24.3436 0.423457 24.5996 0.256486C24.8555 0.0895148 25.1623 -0.000172295 25.4769 2.48494e-07Z" fill="#525252"/>
</svg>
