<svg width="228" height="62" viewBox="0 0 228 62" fill="none" xmlns="http://www.w3.org/2000/svg">
<path d="M1 24.8161L3.09259 26.2514C5.18519 27.6866 9.37037 30.5571 13.5556 36.4069C17.7407 42.2567 21.9259 51.0859 26.1111 55.255C30.2963 59.4242 34.4815 58.9334 38.6667 56.8251C42.8519 54.7168 47.037 50.991 51.2222 50.1263C55.4074 49.2615 59.5926 51.2578 63.7778 46.8012C67.963 42.3445 72.1482 31.4349 76.3333 25.2174C80.5185 18.9999 84.7037 17.4745 88.8889 22.535C93.0741 27.5955 97.2593 39.2417 101.444 46.5008C105.63 53.7599 109.815 56.6318 114 56.7094C118.185 56.7871 122.37 54.0705 126.556 53.2826C130.741 52.4948 134.926 53.6355 139.111 52.825C143.296 52.0145 147.481 49.2528 151.667 42.1465C155.852 35.0402 160.037 23.5893 164.222 19.2983C168.407 15.0073 172.593 17.876 176.778 21.2476C180.963 24.6193 185.148 28.4938 189.333 27.9967C193.519 27.4997 197.704 22.6311 201.889 17.5556C206.074 12.4801 210.259 7.19759 214.444 4.40383C218.63 1.61007 222.815 1.30503 224.907 1.15252L227 1" stroke="#18A0FB"/>
<path d="M3.09259 26.2514L1 24.8161V62H227V1L224.907 1.15252C222.815 1.30503 218.63 1.61007 214.444 4.40383C210.259 7.19759 206.074 12.4801 201.889 17.5556C197.704 22.6311 193.519 27.4997 189.333 27.9967C185.148 28.4938 180.963 24.6193 176.778 21.2476C172.593 17.876 168.407 15.0073 164.222 19.2983C160.037 23.5893 155.852 35.0402 151.667 42.1465C147.481 49.2528 143.296 52.0145 139.111 52.825C134.926 53.6355 130.741 52.4948 126.556 53.2826C122.37 54.0705 118.185 56.7871 114 56.7094C109.815 56.6318 105.63 53.7599 101.444 46.5008C97.2593 39.2417 93.0741 27.5955 88.8889 22.535C84.7037 17.4745 80.5185 18.9999 76.3333 25.2174C72.1481 31.4349 67.963 42.3445 63.7778 46.8012C59.5926 51.2578 55.4074 49.2615 51.2222 50.1263C47.037 50.991 42.8519 54.7168 38.6667 56.8251C34.4815 58.9334 30.2963 59.4242 26.1111 55.255C21.9259 51.0859 17.7407 42.2567 13.5556 36.4069C9.37037 30.5571 5.18519 27.6866 3.09259 26.2514Z" fill="url(#paint0_linear_1235_12702)" fill-opacity="0.2"/>
<defs>
<linearGradient id="paint0_linear_1235_12702" x1="114" y1="1" x2="114" y2="62" gradientUnits="userSpaceOnUse">
<stop stop-color="#15345C"/>
<stop offset="1" stop-color="#2D6EC2"/>
</linearGradient>
</defs>
</svg>
