<svg width="27" height="19" viewBox="0 0 27 19" fill="none" xmlns="http://www.w3.org/2000/svg">
<path d="M26.55 3.54875C26.4095 3.37691 26.2325 3.2385 26.0319 3.14358C25.8312 3.04867 25.612 2.99962 25.39 3H6.36812L5.985 0.82625C5.94415 0.594705 5.82301 0.384959 5.64288 0.233855C5.46274 0.0827502 5.23512 -4.94009e-05 5 2.21126e-08H1C0.734784 2.21126e-08 0.48043 0.105357 0.292893 0.292893C0.105357 0.48043 0 0.734784 0 1C0 1.26522 0.105357 1.51957 0.292893 1.70711C0.48043 1.89464 0.734784 2 1 2H4.16125L7.015 18.1737C7.05585 18.4053 7.17699 18.615 7.35712 18.7661C7.53726 18.9172 7.76488 19 8 19H24C24.2652 19 24.5196 18.8946 24.7071 18.7071C24.8946 18.5196 25 18.2652 25 18C25 17.7348 24.8946 17.4804 24.7071 17.2929C24.5196 17.1054 24.2652 17 24 17H8.83875L8.48625 15H23.59C23.9368 14.9996 24.2728 14.8793 24.5411 14.6596C24.8094 14.4399 24.9936 14.1343 25.0625 13.7944L26.8625 4.79438C26.9059 4.57656 26.9003 4.35184 26.8463 4.13643C26.7923 3.92102 26.6911 3.72029 26.55 3.54875Z" fill="#525252"/>
</svg>
