<svg width="38" height="24" viewBox="0 0 38 24" fill="none" xmlns="http://www.w3.org/2000/svg">
<path d="M4.83464 0.332031C3.72957 0.332031 2.66976 0.771018 1.88836 1.55242C1.10696 2.33382 0.667969 3.39363 0.667969 4.4987V16.9987C0.667969 18.1038 1.10696 19.1636 1.88836 19.945C2.66976 20.7264 3.72957 21.1654 4.83464 21.1654H11.0846V16.9987H4.83464V4.4987H11.0846V0.332031H4.83464ZM17.3346 0.332031C16.2296 0.332031 15.1698 0.771018 14.3884 1.55242C13.607 2.33382 13.168 3.39363 13.168 4.4987V16.9987C13.168 18.1038 13.607 19.1636 14.3884 19.945C15.1698 20.7264 16.2296 21.1654 17.3346 21.1654H21.5013C22.6064 21.1654 23.6662 20.7264 24.4476 19.945C25.229 19.1636 25.668 18.1038 25.668 16.9987V4.4987C25.668 3.39363 25.229 2.33382 24.4476 1.55242C23.6662 0.771018 22.6064 0.332031 21.5013 0.332031H17.3346ZM17.3346 4.4987H21.5013V16.9987H17.3346V4.4987ZM27.7513 7.6237V10.7487H34.0013V13.8737H30.8763C30.0475 13.8737 29.2526 14.2029 28.6666 14.789C28.0805 15.375 27.7513 16.1699 27.7513 16.9987V23.2487H37.1263V20.1237H30.8763V16.9987H34.0013C34.8301 16.9987 35.625 16.6695 36.211 16.0834C36.7971 15.4974 37.1263 14.7025 37.1263 13.8737V10.7487C37.1263 9.9199 36.7971 9.12504 36.211 8.53899C35.625 7.95294 34.8301 7.6237 34.0013 7.6237H27.7513Z" fill="black"/>
</svg>
