<svg width="31" height="31" viewBox="0 0 31 31" fill="none" xmlns="http://www.w3.org/2000/svg">
<path fill-rule="evenodd" clip-rule="evenodd" d="M1.8185 1.965C0.5 3.42833 0.5 5.78667 0.5 10.5V20.5C0.5 25.2133 0.5 27.5717 1.8185 29.035C3.1355 30.5 5.258 30.5 9.5 30.5H21.5C25.742 30.5 27.8645 30.5 29.1815 29.035C30.5 27.5717 30.5 25.2133 30.5 20.5V10.5C30.5 5.78667 30.5 3.42833 29.1815 1.965C27.8645 0.5 25.742 0.5 21.5 0.5H9.5C5.258 0.5 3.1355 0.5 1.8185 1.965ZM21.5 8.83333C21.8978 8.83333 22.2794 9.00893 22.5607 9.32149C22.842 9.63405 23 10.058 23 10.5V23.8333C23 24.2754 22.842 24.6993 22.5607 25.0118C22.2794 25.3244 21.8978 25.5 21.5 25.5C21.1022 25.5 20.7206 25.3244 20.4393 25.0118C20.158 24.6993 20 24.2754 20 23.8333V10.5C20 10.058 20.158 9.63405 20.4393 9.32149C20.7206 9.00893 21.1022 8.83333 21.5 8.83333ZM11 13.8333C11 13.3913 10.842 12.9674 10.5607 12.6548C10.2794 12.3423 9.89782 12.1667 9.5 12.1667C9.10218 12.1667 8.72064 12.3423 8.43934 12.6548C8.15804 12.9674 8 13.3913 8 13.8333V23.8333C8 24.2754 8.15804 24.6993 8.43934 25.0118C8.72064 25.3244 9.10218 25.5 9.5 25.5C9.89782 25.5 10.2794 25.3244 10.5607 25.0118C10.842 24.6993 11 24.2754 11 23.8333V13.8333ZM17 17.1667C17 16.7246 16.842 16.3007 16.5607 15.9882C16.2794 15.6756 15.8978 15.5 15.5 15.5C15.1022 15.5 14.7206 15.6756 14.4393 15.9882C14.158 16.3007 14 16.7246 14 17.1667V23.8333C14 24.2754 14.158 24.6993 14.4393 25.0118C14.7206 25.3244 15.1022 25.5 15.5 25.5C15.8978 25.5 16.2794 25.3244 16.5607 25.0118C16.842 24.6993 17 24.2754 17 23.8333V17.1667Z" fill="black"/>
</svg>
