<svg width="30" height="30" viewBox="0 0 30 30" fill="none" xmlns="http://www.w3.org/2000/svg">
<path fill-rule="evenodd" clip-rule="evenodd" d="M1.3185 1.465C-8.9407e-08 2.92833 0 5.28667 0 10V20C0 24.7133 -8.9407e-08 27.0717 1.3185 28.535C2.6355 30 4.758 30 9 30H21C25.242 30 27.3645 30 28.6815 28.535C30 27.0717 30 24.7133 30 20V10C30 5.28667 30 2.92833 28.6815 1.465C27.3645 -9.93411e-08 25.242 0 21 0H9C4.758 0 2.6355 -9.93411e-08 1.3185 1.465ZM21 8.33333C21.3978 8.33333 21.7794 8.50893 22.0607 8.82149C22.342 9.13405 22.5 9.55797 22.5 10V23.3333C22.5 23.7754 22.342 24.1993 22.0607 24.5118C21.7794 24.8244 21.3978 25 21 25C20.6022 25 20.2206 24.8244 19.9393 24.5118C19.658 24.1993 19.5 23.7754 19.5 23.3333V10C19.5 9.55797 19.658 9.13405 19.9393 8.82149C20.2206 8.50893 20.6022 8.33333 21 8.33333ZM10.5 13.3333C10.5 12.8913 10.342 12.4674 10.0607 12.1548C9.77936 11.8423 9.39782 11.6667 9 11.6667C8.60218 11.6667 8.22064 11.8423 7.93934 12.1548C7.65804 12.4674 7.5 12.8913 7.5 13.3333V23.3333C7.5 23.7754 7.65804 24.1993 7.93934 24.5118C8.22064 24.8244 8.60218 25 9 25C9.39782 25 9.77936 24.8244 10.0607 24.5118C10.342 24.1993 10.5 23.7754 10.5 23.3333V13.3333ZM16.5 16.6667C16.5 16.2246 16.342 15.8007 16.0607 15.4882C15.7794 15.1756 15.3978 15 15 15C14.6022 15 14.2206 15.1756 13.9393 15.4882C13.658 15.8007 13.5 16.2246 13.5 16.6667V23.3333C13.5 23.7754 13.658 24.1993 13.9393 24.5118C14.2206 24.8244 14.6022 25 15 25C15.3978 25 15.7794 24.8244 16.0607 24.5118C16.342 24.1993 16.5 23.7754 16.5 23.3333V16.6667Z" fill="#525252"/>
</svg>
