<svg width="38" height="42" viewBox="0 0 38 42" fill="none" xmlns="http://www.w3.org/2000/svg">
<path fill-rule="evenodd" clip-rule="evenodd" d="M2.69167 2.60964C0.25 5.04922 0.25 8.97839 0.25 16.8346V25.168C0.25 33.0242 0.25 36.9534 2.69167 39.393C5.13333 41.8326 9.06042 41.8346 16.9167 41.8346H21.0833C28.9396 41.8346 32.8687 41.8346 35.3083 39.393C37.7479 36.9513 37.75 33.0242 37.75 25.168V16.8346C37.75 8.97839 37.75 5.04922 35.3083 2.60964C32.8667 0.170052 28.9396 0.167969 21.0833 0.167969H16.9167C9.06042 0.167969 5.13125 0.167969 2.69167 2.60964ZM10.6667 15.2721C10.2523 15.2721 9.85484 15.4368 9.56181 15.7298C9.26879 16.0228 9.10417 16.4202 9.10417 16.8346C9.10417 17.249 9.26879 17.6465 9.56181 17.9395C9.85484 18.2325 10.2523 18.3971 10.6667 18.3971H27.3333C27.7477 18.3971 28.1452 18.2325 28.4382 17.9395C28.7312 17.6465 28.8958 17.249 28.8958 16.8346C28.8958 16.4202 28.7312 16.0228 28.4382 15.7298C28.1452 15.4368 27.7477 15.2721 27.3333 15.2721H10.6667ZM10.6667 23.6055C10.2523 23.6055 9.85484 23.7701 9.56181 24.0631C9.26879 24.3561 9.10417 24.7536 9.10417 25.168C9.10417 25.5824 9.26879 25.9798 9.56181 26.2728C9.85484 26.5658 10.2523 26.7305 10.6667 26.7305H21.0833C21.4977 26.7305 21.8952 26.5658 22.1882 26.2728C22.4812 25.9798 22.6458 25.5824 22.6458 25.168C22.6458 24.7536 22.4812 24.3561 22.1882 24.0631C21.8952 23.7701 21.4977 23.6055 21.0833 23.6055H10.6667Z" fill="black"/>
</svg>
