<svg width="228" height="70" viewBox="0 0 228 70" fill="none" xmlns="http://www.w3.org/2000/svg">
<path d="M1 10.3503L2.71212 8.67722C4.42424 7.00414 7.84848 3.65799 11.2727 2.09731C14.697 0.536627 18.1212 0.76142 21.5455 2.01387C24.9697 3.26632 28.3939 5.54642 31.8182 8.35508C35.2424 11.1638 38.6667 14.501 42.0909 18.1657C45.5152 21.8304 48.9394 25.8226 52.3636 26.8959C55.7879 27.9691 59.2121 26.1235 62.6364 24.92C66.0606 23.7164 69.4848 23.1549 72.9091 23.7199C76.3333 24.2848 79.7576 25.9763 83.1818 25.2784C86.6061 24.5805 90.0303 21.4933 93.4545 20.4701C96.8788 19.447 100.303 20.4879 103.727 22.9673C107.152 25.4466 110.576 29.3643 114 32.722C117.424 36.0797 120.848 38.8774 124.273 37.8098C127.697 36.7422 131.121 31.8092 134.545 32.2695C137.97 32.7298 141.394 38.5833 144.818 37.0324C148.242 35.4815 151.667 26.5261 155.091 26.3373C158.515 26.1485 161.939 34.7262 165.364 37.276C168.788 39.8258 172.212 36.3476 175.636 35.2134C179.061 34.0793 182.485 35.2892 185.909 33.5666C189.333 31.8441 192.758 27.1892 196.182 27.4399C199.606 27.6907 203.03 32.8472 206.455 33.9881C209.879 35.1291 213.303 32.2545 216.727 35.0873C220.151 37.92 223.576 46.46 225.288 50.73L227 55" stroke="#FF0707"/>
<path d="M2.71212 8.67722L1 10.3503V70H227V55L225.288 50.73C223.576 46.46 220.152 37.92 216.727 35.0873C213.303 32.2545 209.879 35.1291 206.455 33.9881C203.03 32.8472 199.606 27.6907 196.182 27.4399C192.758 27.1892 189.333 31.8441 185.909 33.5666C182.485 35.2892 179.061 34.0793 175.636 35.2134C172.212 36.3476 168.788 39.8258 165.364 37.276C161.939 34.7262 158.515 26.1485 155.091 26.3373C151.667 26.5261 148.242 35.4815 144.818 37.0324C141.394 38.5833 137.97 32.7298 134.545 32.2695C131.121 31.8092 127.697 36.7421 124.273 37.8098C120.848 38.8774 117.424 36.0797 114 32.722C110.576 29.3643 107.152 25.4466 103.727 22.9673C100.303 20.4879 96.8788 19.447 93.4545 20.4701C90.0303 21.4933 86.6061 24.5805 83.1818 25.2784C79.7576 25.9763 76.3333 24.2848 72.9091 23.7199C69.4848 23.1549 66.0606 23.7164 62.6364 24.92C59.2121 26.1235 55.7879 27.9691 52.3636 26.8959C48.9394 25.8226 45.5152 21.8304 42.0909 18.1657C38.6667 14.501 35.2424 11.1638 31.8182 8.35508C28.3939 5.54642 24.9697 3.26632 21.5455 2.01387C18.1212 0.76142 14.697 0.536627 11.2727 2.09731C7.84849 3.65799 4.42424 7.00414 2.71212 8.67722Z" fill="url(#paint0_linear_1235_12855)" fill-opacity="0.5"/>
<defs>
<linearGradient id="paint0_linear_1235_12855" x1="114" y1="1" x2="114" y2="70" gradientUnits="userSpaceOnUse">
<stop stop-color="#EA3434"/>
<stop offset="1" stop-color="#EF7D7D"/>
</linearGradient>
</defs>
</svg>
