<svg width="50" height="50" viewBox="0 0 50 50" fill="none" xmlns="http://www.w3.org/2000/svg">
<rect x="0.5" y="0.5" width="49" height="49" rx="9.5" fill="#C3FFD9" fill-opacity="0.66"/>
<rect x="0.5" y="0.5" width="49" height="49" rx="9.5" stroke="#3CAA32"/>
<path d="M20.3359 25L23.4343 28.0983C23.4967 28.1604 23.5812 28.1953 23.6693 28.1953C23.7573 28.1953 23.8418 28.1604 23.9043 28.0983L29.5026 22.5" stroke="#2E8A4D" stroke-width="2" stroke-linecap="round"/>
<path d="M30.0026 13.332H20.0026C16.3207 13.332 13.3359 16.3168 13.3359 19.9987V29.9987C13.3359 33.6806 16.3207 36.6654 20.0026 36.6654H30.0026C33.6845 36.6654 36.6693 33.6806 36.6693 29.9987V19.9987C36.6693 16.3168 33.6845 13.332 30.0026 13.332Z" stroke="#2E8A4D" stroke-width="2"/>
</svg>
