<svg width="50" height="50" viewBox="0 0 50 50" fill="none" xmlns="http://www.w3.org/2000/svg">
<rect x="0.5" y="0.5" width="49" height="49" rx="9.5" fill="#F9CBCB" fill-opacity="0.7"/>
<rect x="0.5" y="0.5" width="49" height="49" rx="9.5" stroke="#FF0707"/>
<path d="M19.7474 32.293L24.9974 27.043L30.2474 32.293L32.2891 30.2513L27.0391 25.0013L32.2891 19.7513L30.2474 17.7096L24.9974 22.9596L19.7474 17.7096L17.7057 19.7513L22.9557 25.0013L17.7057 30.2513L19.7474 32.293ZM24.9974 39.5846C22.98 39.5846 21.0842 39.2016 19.3099 38.4355C17.5356 37.6694 15.9922 36.6305 14.6797 35.319C13.3672 34.0075 12.3284 32.4641 11.5632 30.6888C10.7981 28.9135 10.415 27.0177 10.4141 25.0013C10.4131 22.9849 10.7961 21.0891 11.5632 19.3138C12.3303 17.5385 13.3691 15.9951 14.6797 14.6836C15.9902 13.3721 17.5336 12.3332 19.3099 11.5671C21.0861 10.801 22.982 10.418 24.9974 10.418C27.0128 10.418 28.9086 10.801 30.6849 11.5671C32.4611 12.3332 34.0046 13.3721 35.3151 14.6836C36.6257 15.9951 37.665 17.5385 38.433 19.3138C39.2011 21.0891 39.5836 22.9849 39.5807 25.0013C39.5778 27.0177 39.1948 28.9135 38.4316 30.6888C37.6684 32.4641 36.6296 34.0075 35.3151 35.319C34.0007 36.6305 32.4573 37.6698 30.6849 38.4369C28.9125 39.204 27.0167 39.5866 24.9974 39.5846ZM24.9974 36.668C28.2543 36.668 31.013 35.5378 33.2734 33.2773C35.5339 31.0169 36.6641 28.2582 36.6641 25.0013C36.6641 21.7444 35.5339 18.9857 33.2734 16.7253C31.013 14.4648 28.2543 13.3346 24.9974 13.3346C21.7405 13.3346 18.9818 14.4648 16.7214 16.7253C14.4609 18.9857 13.3307 21.7444 13.3307 25.0013C13.3307 28.2582 14.4609 31.0169 16.7214 33.2773C18.9818 35.5378 21.7405 36.668 24.9974 36.668Z" fill="#FF0707"/>
</svg>
