<svg width="50" height="50" viewBox="0 0 50 50" fill="none" xmlns="http://www.w3.org/2000/svg">
<rect x="0.5" y="0.5" width="49" height="49" rx="9.5" fill="#C2FFFF" fill-opacity="0.45"/>
<rect x="0.5" y="0.5" width="49" height="49" rx="9.5" stroke="#277DAB"/>
<path d="M40.0628 33.0491C39.9944 32.8066 39.8345 32.6001 39.6169 32.4731C39.3993 32.3462 39.1408 32.3087 38.8961 32.3685L36.4753 33.0199C37.8 31.0672 38.6032 28.8081 38.8086 26.4574C39.0072 24.2581 38.6856 22.043 37.8698 19.991C37.0541 17.939 35.7671 16.1076 34.1128 14.6449C33.9215 14.4867 33.677 14.4077 33.4294 14.424C33.1818 14.4402 32.9497 14.5506 32.7808 14.7324C32.6109 14.9259 32.5246 15.1789 32.541 15.4359C32.5574 15.6929 32.6751 15.9329 32.8683 16.1032C34.2938 17.3615 35.4029 18.938 36.1055 20.7048C36.8082 22.4716 37.0847 24.3791 36.9128 26.2727C36.7458 28.2671 36.0769 30.1869 34.9683 31.8532L34.7253 29.413C34.7436 29.2694 34.7296 29.1235 34.6844 28.9859C34.6391 28.8484 34.5637 28.7227 34.4636 28.6181C34.3636 28.5134 34.2415 28.4324 34.1061 28.381C33.9708 28.3296 33.8257 28.3091 33.6814 28.3209C33.5371 28.3328 33.3972 28.3767 33.2721 28.4495C33.1469 28.5222 33.0396 28.6221 32.958 28.7416C32.8763 28.8612 32.8224 28.9975 32.8002 29.1405C32.7779 29.2836 32.7879 29.4298 32.8294 29.5685L33.3155 35.8296L39.3919 34.2157C39.6326 34.1453 39.8368 33.9847 39.9618 33.7672C40.0868 33.5498 40.123 33.2925 40.0628 33.0491Z" fill="#277DAB"/>
<path d="M11.6912 24.1044C11.8209 24.1864 11.9668 24.2394 12.1189 24.26C12.3727 24.2933 12.6293 24.2252 12.8331 24.0705C13.037 23.9158 13.1716 23.6869 13.2078 23.4336C13.6095 20.4675 15.1169 17.7626 17.4281 15.8607C19.7393 13.9587 22.6837 13 25.6717 13.1766L23.4939 14.6641C23.3398 14.7802 23.2238 14.9395 23.1605 15.1218C23.0972 15.304 23.0896 15.501 23.1386 15.6876C23.1876 15.8742 23.291 16.042 23.4356 16.1696C23.5803 16.2973 23.7596 16.379 23.9509 16.4044C24.1699 16.4244 24.3893 16.3696 24.5731 16.2489L29.755 12.6905L25.3217 8.23775C25.2428 8.11687 25.138 8.01507 25.0149 7.93974C24.8917 7.86442 24.7534 7.81746 24.6098 7.80227C24.4663 7.78708 24.3211 7.80405 24.185 7.85195C24.0488 7.89984 23.925 7.97745 23.8226 8.07916C23.7201 8.18086 23.6416 8.30409 23.5927 8.43992C23.5439 8.57574 23.5258 8.72074 23.54 8.8644C23.5541 9.00805 23.6001 9.14675 23.6745 9.27043C23.749 9.39411 23.85 9.49966 23.9703 9.57942L25.6231 11.2322C22.1725 11.0672 18.7855 12.2019 16.1306 14.4122C13.4757 16.6224 11.746 19.7478 11.2828 23.1711C11.2579 23.3492 11.2829 23.5307 11.355 23.6955C11.427 23.8603 11.5434 24.0018 11.6912 24.1044Z" fill="#277DAB"/>
<path d="M28.6264 36.5999C27.1083 37.0849 25.5068 37.2536 23.9209 37.0957C21.9894 36.9064 20.1331 36.2499 18.5121 35.1828C16.8911 34.1156 15.5542 32.67 14.6167 30.9707L17.0376 31.8749C17.2607 31.9136 17.4904 31.8732 17.6869 31.7606C17.8834 31.6481 18.0345 31.4704 18.114 31.2584C18.1935 31.0463 18.1965 30.8131 18.1225 30.5991C18.0484 30.3851 17.902 30.2036 17.7084 30.086L13.2459 28.4332L11.8167 27.918L10.7376 34.0916C10.7001 34.3383 10.759 34.5899 10.902 34.7944C11.0449 34.9989 11.2611 35.1406 11.5056 35.1902H11.6709C11.8997 35.1944 12.1227 35.1177 12.3005 34.9736C12.4783 34.8296 12.5997 34.6274 12.6431 34.4027L13.0514 32.0694C14.1511 33.9956 15.6956 35.6308 17.556 36.8384C19.4165 38.046 21.5388 38.7909 23.7459 39.011C25.5911 39.1942 27.4543 38.9956 29.2195 38.4277C29.4443 38.3346 29.626 38.1607 29.7287 37.9402C29.8315 37.7197 29.8479 37.4686 29.7746 37.2367C29.7014 37.0047 29.5438 36.8086 29.333 36.6871C29.1223 36.5656 28.8736 36.5276 28.6362 36.5805L28.6264 36.5999Z" fill="#277DAB"/>
<path d="M28.8906 20.1406H21.1128C20.855 20.1406 20.6077 20.2431 20.4254 20.4254C20.2431 20.6077 20.1406 20.855 20.1406 21.1128V28.8906C20.1406 29.1485 20.2431 29.3958 20.4254 29.5781C20.6077 29.7604 20.855 29.8628 21.1128 29.8628H28.8906C29.1485 29.8628 29.3958 29.7604 29.5781 29.5781C29.7604 29.3958 29.8628 29.1485 29.8628 28.8906V21.1128C29.8628 20.855 29.7604 20.6077 29.5781 20.4254C29.3958 20.2431 29.1485 20.1406 28.8906 20.1406ZM27.9184 27.9184H22.0851V22.0851H27.9184V27.9184Z" fill="#277DAB"/>
</svg>
