<svg width="50" height="50" viewBox="0 0 50 50" fill="none" xmlns="http://www.w3.org/2000/svg">
<rect x="0.5" y="0.5" width="49" height="49" rx="9.5" fill="#FFE600" fill-opacity="0.23"/>
<rect x="0.5" y="0.5" width="49" height="49" rx="9.5" stroke="#B1A614"/>
<path d="M27.9925 10.1734C27.7685 9.99034 27.5104 9.85352 27.2332 9.77087C26.956 9.68822 26.6651 9.66138 26.3775 9.69189C26.0898 9.72241 25.811 9.80968 25.5573 9.94865C25.3036 10.0876 25.08 10.2755 24.8994 10.5015L18.5644 18.4378H21.3644L26.6078 11.8665L28.2922 13.2425L24.0703 18.4378H26.8878L29.9875 14.6228L33.7456 17.6918L33.0938 18.4378H33.75C34.4023 18.4371 35.0511 18.5337 35.675 18.7243C35.9133 18.2773 35.9891 17.7614 35.8893 17.2647C35.7896 16.768 35.5205 16.3213 35.1281 16.0009L27.9925 10.1734ZM14.0625 19.5315C14.0625 19.2414 14.1777 18.9632 14.3829 18.7581C14.588 18.553 14.8662 18.4378 15.1562 18.4378H16.3769L18.1159 16.2503H15.1562C14.286 16.2503 13.4514 16.596 12.8361 17.2113C12.2207 17.8267 11.875 18.6613 11.875 19.5315V32.6565C11.875 34.1069 12.4512 35.4979 13.4768 36.5235C14.5023 37.5491 15.8933 38.1253 17.3438 38.1253H33.75C34.9103 38.1253 36.0231 37.6643 36.8436 36.8439C37.6641 36.0234 38.125 34.9106 38.125 33.7503V25.0003C38.125 23.84 37.6641 22.7272 36.8436 21.9067C36.0231 21.0862 34.9103 20.6253 33.75 20.6253H15.1562C14.8662 20.6253 14.588 20.51 14.3829 20.3049C14.1777 20.0998 14.0625 19.8216 14.0625 19.5315ZM30.4688 29.3753H32.6562C32.9463 29.3753 33.2245 29.4905 33.4296 29.6956C33.6348 29.9007 33.75 30.1789 33.75 30.469C33.75 30.7591 33.6348 31.0373 33.4296 31.2424C33.2245 31.4475 32.9463 31.5628 32.6562 31.5628H30.4688C30.1787 31.5628 29.9005 31.4475 29.6954 31.2424C29.4902 31.0373 29.375 30.7591 29.375 30.469C29.375 30.1789 29.4902 29.9007 29.6954 29.6956C29.9005 29.4905 30.1787 29.3753 30.4688 29.3753Z" fill="#B1A614"/>
</svg>
