<svg width="24" height="24" viewBox="0 0 24 24" fill="none" xmlns="http://www.w3.org/2000/svg">
<path fill-rule="evenodd" clip-rule="evenodd" d="M3.75 1.56641C3.55109 1.56641 3.36032 1.64542 3.21967 1.78608C3.07902 1.92673 3 2.11749 3 2.31641V18.6814C3 18.8803 3.07902 19.0711 3.21967 19.2117C3.36032 19.3524 3.55109 19.4314 3.75 19.4314H17.25C17.4489 19.4314 17.6397 19.3524 17.7803 19.2117C17.921 19.0711 18 18.8803 18 18.6814V8.04491C18.0002 7.9442 17.9801 7.84449 17.9409 7.75171C17.9018 7.65893 17.8443 7.575 17.772 7.50491L11.8665 1.78091C11.7268 1.64472 11.5396 1.56832 11.3445 1.56791L3.75 1.56641ZM15.399 7.29491L12.0945 4.08941V7.29491H15.399ZM9 8.24891H6V6.74891H9V8.24891ZM15 11.9989H6V10.4989H15V11.9989ZM6 15.7489H15V14.2489H6V15.7489Z" fill="black"/>
<path d="M19.5 11.25V21H6.75V22.5H20.25C20.4489 22.5 20.6397 22.421 20.7803 22.2803C20.921 22.1397 21 21.9489 21 21.75V11.25H19.5Z" fill="black"/>
</svg>
