<svg width="40" height="40" viewBox="0 0 40 40" fill="none" xmlns="http://www.w3.org/2000/svg">
<path d="M11.7167 0.140097C9.58835 0.240097 8.13501 0.580097 6.86668 1.07843C5.53287 1.58368 4.32495 2.37305 3.32668 3.39176C2.31217 4.39279 1.52738 5.60238 1.02668 6.93676C0.535015 8.2101 0.200015 9.66676 0.106681 11.7934C0.013348 13.9201 -0.00831862 14.6068 0.00168138 20.0384C0.0116814 25.4701 0.0366814 26.1501 0.140015 28.2834C0.241681 30.4118 0.580015 31.8651 1.07835 33.1351C1.59168 34.4501 2.27835 35.5634 3.39168 36.6734C4.39367 37.6883 5.60444 38.4732 6.94001 38.9734C8.21168 39.4651 9.66668 39.8001 11.795 39.8934C13.925 39.9868 14.61 40.0084 20.04 39.9984C25.47 39.9884 26.1533 39.9634 28.285 39.8618C30.4183 39.7618 31.8633 39.4201 33.135 38.9234C34.4682 38.418 35.6756 37.6286 36.6733 36.6101C37.6883 35.6081 38.4731 34.3973 38.9733 33.0618C39.465 31.7901 39.8 30.3351 39.8917 28.2084C39.985 26.0751 40.0083 25.3918 39.9967 19.9618C39.9867 14.5318 39.9633 13.8501 39.8617 11.7168C39.7617 9.58343 39.4217 8.13676 38.9217 6.8651C38.4167 5.53204 37.6279 4.32471 36.61 3.32676C35.6085 2.31205 34.3983 1.52725 33.0633 1.02676C31.79 0.536764 30.3367 0.200097 28.2067 0.110097C26.0783 0.0150973 25.3933 -0.00990272 19.9617 9.72829e-05C14.53 0.0100973 13.85 0.0350973 11.7167 0.140097ZM11.95 36.2951C10 36.2118 8.94168 35.8868 8.23668 35.6151C7.36661 35.2972 6.57934 34.7873 5.93335 34.1234C5.26726 33.4802 4.75458 32.6952 4.43335 31.8268C4.15835 31.1218 3.82835 30.0634 3.73835 28.1134C3.63835 26.0068 3.61835 25.3734 3.60501 20.0334C3.59501 14.6934 3.61501 14.0618 3.70668 11.9534C3.79001 10.0051 4.11668 8.9451 4.38668 8.2401C4.74668 7.3051 5.18168 6.6401 5.87835 5.93676C6.52206 5.27047 7.30762 4.75777 8.17668 4.43676C8.88168 4.16176 9.93835 3.8351 11.8883 3.74176C13.9967 3.64176 14.6283 3.62176 19.9683 3.60843C25.3067 3.59843 25.94 3.61843 28.0517 3.71176C29.9983 3.7951 31.0583 4.11843 31.7633 4.39176C32.6967 4.75176 33.3633 5.18343 34.0667 5.88343C34.77 6.58343 35.2017 7.2451 35.5667 8.1801C35.8417 8.88343 36.17 9.9401 36.2617 11.8918C36.3617 14.0001 36.385 14.6334 36.395 19.9718C36.4033 25.3101 36.385 25.9434 36.2933 28.0518C36.2083 30.0018 35.885 31.0601 35.6133 31.7684C35.2533 32.7018 34.8183 33.3684 34.12 34.0684C33.4768 34.7345 32.6918 35.2472 31.8233 35.5684C31.12 35.8434 30.06 36.1718 28.1133 36.2651C26.0033 36.3651 25.3717 36.3851 20.03 36.3968C14.6883 36.4084 14.06 36.3851 11.95 36.2951ZM28.255 9.3101C28.2557 9.78484 28.3971 10.2487 28.6615 10.6431C28.9258 11.0374 29.3011 11.3445 29.74 11.5255C30.1789 11.7065 30.6616 11.7533 31.1271 11.6599C31.5926 11.5665 32.0199 11.3371 32.355 11.0009C32.6901 10.6646 32.918 10.2365 33.0097 9.77068C33.1015 9.30489 33.0531 8.82235 32.8706 8.38409C32.688 7.94583 32.3797 7.57154 31.9844 7.30857C31.5891 7.04561 31.1248 6.90578 30.65 6.90676C30.0138 6.90809 29.4041 7.16199 28.955 7.61265C28.5059 8.06332 28.2541 8.67387 28.255 9.3101ZM9.73168 20.0201C9.73699 22.7437 10.824 25.3535 12.7536 27.2756C14.6832 29.1977 17.2973 30.2746 20.0208 30.2693C22.7444 30.264 25.3543 29.1769 27.2764 27.2474C29.1985 25.3178 30.2753 22.7037 30.27 19.9801C30.2307 17.279 29.1288 14.7021 27.203 12.8078C25.2771 10.9134 22.6825 9.85415 19.9811 9.85941C17.2797 9.86467 14.6892 10.9341 12.7708 12.8359C10.8523 14.7377 9.76043 17.3189 9.73168 20.0201ZM13.3333 20.0134C13.3307 18.6949 13.7191 17.4052 14.4495 16.3074C15.1798 15.2096 16.2193 14.353 17.4365 13.846C18.6536 13.339 19.9938 13.2043 21.2875 13.459C22.5812 13.7136 23.7704 14.3462 24.7046 15.2766C25.6388 16.2071 26.2761 17.3937 26.536 18.6864C26.7958 19.9791 26.6664 21.3198 26.1643 22.539C25.6621 23.7582 24.8097 24.8011 23.7149 25.5358C22.62 26.2706 21.3319 26.6641 20.0133 26.6668C19.1379 26.6685 18.2706 26.4978 17.4611 26.1644C16.6516 25.831 15.9157 25.3414 15.2954 24.7236C14.6751 24.1058 14.1826 23.3718 13.8459 22.5636C13.5093 21.7555 13.3351 20.8889 13.3333 20.0134Z" fill="white"/>
</svg>
