<svg width="25" height="13" viewBox="0 0 25 13" fill="none" xmlns="http://www.w3.org/2000/svg">
<path fill-rule="evenodd" clip-rule="evenodd" d="M6.25 2.59375H18.75C19.786 2.59375 20.7796 3.0053 21.5121 3.73786C22.2447 4.47043 22.6562 5.464 22.6562 6.5C22.6562 7.536 22.2447 8.52957 21.5121 9.26214C20.7796 9.9947 19.786 10.4062 18.75 10.4062H6.25C5.214 10.4062 4.22043 9.9947 3.48786 9.26214C2.7553 8.52957 2.34375 7.536 2.34375 6.5C2.34375 5.464 2.7553 4.47043 3.48786 3.73786C4.22043 3.0053 5.214 2.59375 6.25 2.59375ZM0 6.5C0 4.8424 0.65848 3.25268 1.83058 2.08058C3.00269 0.90848 4.5924 0.25 6.25 0.25H18.75C20.4076 0.25 21.9973 0.90848 23.1694 2.08058C24.3415 3.25268 25 4.8424 25 6.5C25 8.1576 24.3415 9.74732 23.1694 10.9194C21.9973 12.0915 20.4076 12.75 18.75 12.75H6.25C4.5924 12.75 3.00269 12.0915 1.83058 10.9194C0.65848 9.74732 0 8.1576 0 6.5ZM6.25 4.9375C5.8356 4.9375 5.43817 5.10212 5.14515 5.39515C4.85212 5.68817 4.6875 6.0856 4.6875 6.5C4.6875 6.9144 4.85212 7.31183 5.14515 7.60485C5.43817 7.89788 5.8356 8.0625 6.25 8.0625H14.0625C14.4769 8.0625 14.8743 7.89788 15.1674 7.60485C15.4604 7.31183 15.625 6.9144 15.625 6.5C15.625 6.0856 15.4604 5.68817 15.1674 5.39515C14.8743 5.10212 14.4769 4.9375 14.0625 4.9375H6.25Z" fill="#273E8A"/>
</svg>
