<svg width="44" height="42" viewBox="0 0 44 42" fill="none" xmlns="http://www.w3.org/2000/svg">
<path d="M42.4596 26.125L37.2513 35.1458C36.2305 36.9375 34.3346 37.875 32.418 37.75H28.2513V41.9167L23.043 32.5417L28.2513 23.1667V27.3333H34.1263L29.5013 19.3125L38.5221 14.1042L42.2721 20.6042C43.3555 22.2083 43.5013 24.3542 42.4596 26.125ZM16.1888 0.375H26.6055C28.6471 0.375 30.418 1.5625 31.2721 3.27083L33.3555 6.89583L36.9596 4.8125L31.4596 14L20.7305 14.1875L24.3346 12.1042L21.3971 7L16.793 15.0208L7.7513 9.8125L11.5013 3.3125C12.3555 1.58333 14.1263 0.375 16.1888 0.375ZM7.52214 35.1667L2.3138 26.1458C1.29297 24.375 1.4388 22.25 2.5013 20.6458L4.58464 17.0417L0.980469 14.9583L11.6888 15.125L17.2096 24.3333L13.6055 22.25L10.668 27.3333H19.918V37.75H12.418C11.4419 37.8206 10.4657 37.616 9.60018 37.1593C8.7347 36.7026 8.01472 36.0122 7.52214 35.1667Z" fill="black"/>
</svg>
