<svg width="30" height="30" viewBox="0 0 30 30" fill="none" xmlns="http://www.w3.org/2000/svg">
<path d="M26.4688 16.4688C26.5331 16 26.5652 15.5156 26.5652 15C26.5652 14.5 26.5331 14 26.4528 13.5313L29.7135 11.0625C29.854 10.9498 29.9501 10.7933 29.9852 10.6195C30.0203 10.4457 29.9925 10.2654 29.9063 10.1094L26.8222 4.92188C26.731 4.7654 26.5859 4.64518 26.4126 4.58232C26.2394 4.51946 26.0488 4.51798 25.8745 4.57813L22.0355 6.07813C21.2324 5.48438 20.381 4.98438 19.4333 4.60938L18.8551 0.640629C18.8266 0.46177 18.7332 0.298766 18.5917 0.181217C18.4502 0.0636688 18.2701 -0.000627351 18.0841 4.61468e-06H11.9159C11.5304 4.61468e-06 11.2252 0.265629 11.161 0.640629L10.5827 4.60938C9.63502 4.98438 8.76763 5.5 7.98055 6.07813L4.14154 4.57813C3.78816 4.45313 3.38659 4.57813 3.19384 4.92188L0.125841 10.1094C-0.0669128 10.4375 -0.00266173 10.8438 0.318594 11.0625L3.57934 13.5313C3.49903 14 3.43478 14.5156 3.43478 15C3.43478 15.4844 3.4669 16 3.54722 16.4688L0.286469 18.9375C0.145958 19.0502 0.0499499 19.2067 0.0148027 19.3805C-0.0203446 19.5543 0.00754353 19.7346 0.0937153 19.8906L3.17777 25.0781C3.37053 25.4219 3.7721 25.5312 4.12548 25.4219L7.96449 23.9219C8.76763 24.5156 9.61896 25.0156 10.5667 25.3906L11.1449 29.3594C11.2252 29.7344 11.5304 30 11.9159 30H18.0841C18.4696 30 18.7908 29.7344 18.839 29.3594L19.4173 25.3906C20.365 25.0156 21.2324 24.5156 22.0194 23.9219L25.8585 25.4219C26.2118 25.5469 26.6134 25.4219 26.8062 25.0781L29.8902 19.8906C30.083 19.5469 30.0027 19.1563 29.6975 18.9375L26.4688 16.4688ZM15 20.625C11.8196 20.625 9.21739 18.0938 9.21739 15C9.21739 11.9063 11.8196 9.375 15 9.375C18.1804 9.375 20.7826 11.9063 20.7826 15C20.7826 18.0938 18.1804 20.625 15 20.625Z" fill="white"/>
</svg>
