<svg width="228" height="74" viewBox="0 0 228 74" fill="none" xmlns="http://www.w3.org/2000/svg">
<path d="M1 73L3.51111 72.3642C6.02222 71.7285 11.0444 70.457 16.0667 66.5282C21.0889 62.5995 26.1111 56.0135 31.1333 53.2318C36.1556 50.45 41.1778 51.4726 46.2 53.0599C51.2222 54.6473 56.2444 56.7995 61.2667 54.5044C66.2889 52.2092 71.3111 45.4667 76.3333 43.8837C81.3556 42.3008 86.3778 45.8773 91.4 47.0111C96.4222 48.1448 101.444 46.8357 106.467 44.8864C111.489 42.937 116.511 40.3475 121.533 36.9996C126.556 33.6517 131.578 29.5455 136.6 28.9287C141.622 28.312 146.644 31.1846 151.667 29.2489C156.689 27.3132 161.711 20.5691 166.733 18.2592C171.756 15.9494 176.778 18.0738 181.8 19.392C186.822 20.7102 191.844 21.2223 196.867 20.0098C201.889 18.7973 206.911 15.8603 211.933 12.4046C216.956 8.94886 221.978 4.97443 224.489 2.98721L227 1" stroke="#18A0FB"/>
<path d="M3.51111 72.3643L1 73H227L227 1L224.489 2.98722L224.488 2.9875C221.977 4.97481 216.955 8.94903 211.933 12.4046C206.911 15.8603 201.889 18.7973 196.867 20.0098C191.844 21.2223 186.822 20.7102 181.8 19.392C176.778 18.0738 171.756 15.9494 166.733 18.2592C161.711 20.5691 156.689 27.3132 151.667 29.2489C146.644 31.1846 141.622 28.312 136.6 28.9287C131.578 29.5455 126.556 33.6517 121.533 36.9996C116.511 40.3475 111.489 42.937 106.467 44.8864C101.444 46.8357 96.4222 48.1448 91.4 47.0111C86.3778 45.8773 81.3556 42.3008 76.3333 43.8837C71.3111 45.4667 66.2889 52.2092 61.2667 54.5044C56.2444 56.7995 51.2222 54.6473 46.2 53.0599C41.1778 51.4726 36.1556 50.45 31.1333 53.2318C26.1111 56.0135 21.0889 62.5995 16.0667 66.5283C11.0444 70.457 6.02222 71.7285 3.51111 72.3643Z" fill="url(#paint0_linear_1235_13324)" fill-opacity="0.2"/>
<defs>
<linearGradient id="paint0_linear_1235_13324" x1="114" y1="1" x2="114" y2="73" gradientUnits="userSpaceOnUse">
<stop stop-color="#15345C"/>
<stop offset="1" stop-color="#2D6EC2"/>
</linearGradient>
</defs>
</svg>
