<svg width="45" height="45" viewBox="0 0 45 45" fill="none" xmlns="http://www.w3.org/2000/svg">
<path d="M36.2062 35.4375L41.9812 41.25L39.375 43.8562L33.525 38.1C32.2312 38.9062 30.6937 39.375 29.0625 39.375C24.375 39.375 20.625 35.625 20.625 30.9375C20.625 26.25 24.375 22.5 29.0625 22.5C33.75 22.5 37.5 26.25 37.5 30.9375C37.5 32.5875 37.0312 34.1437 36.2062 35.4375ZM29.0625 35.625C30.3057 35.625 31.498 35.1311 32.3771 34.2521C33.2561 33.373 33.75 32.1807 33.75 30.9375C33.75 29.6943 33.2561 28.502 32.3771 27.6229C31.498 26.7439 30.3057 26.25 29.0625 26.25C27.8193 26.25 26.627 26.7439 25.7479 27.6229C24.8689 28.502 24.375 29.6943 24.375 30.9375C24.375 32.1807 24.8689 33.373 25.7479 34.2521C26.627 35.1311 27.8193 35.625 29.0625 35.625ZM39.375 7.5V11.25H5.625V7.5H39.375ZM5.625 30V26.25H16.875V30H5.625ZM5.625 20.625V16.875H39.375V20.625H35.5687C33.675 19.4437 31.4437 18.75 29.0625 18.75C26.6812 18.75 24.45 19.4437 22.5562 20.625H5.625Z" fill="black"/>
</svg>
