<svg width="24" height="24" viewBox="0 0 24 24" fill="none" xmlns="http://www.w3.org/2000/svg">
<path d="M17 13V17C17 18.3833 16.5123 19.5623 15.537 20.537C14.5617 21.5117 13.3827 21.9993 12 22C10.6173 22.0007 9.43833 21.513 8.463 20.537C7.48767 19.561 7 18.382 7 17L7 13H9V17C9 17.8333 9.29167 18.5417 9.875 19.125C10.4583 19.7083 11.1667 20 12 20C12.8333 20 13.5417 19.7083 14.125 19.125C14.7083 18.5417 15 17.8333 15 17V13H17ZM13 16H11V8H13V16ZM17 11H15L15 7C15 6.16667 14.7083 5.45833 14.125 4.875C13.5417 4.29167 12.8333 4 12 4C11.1667 4 10.4583 4.29167 9.875 4.875C9.29167 5.45833 9 6.16667 9 7V11H7V7C7 5.61666 7.48767 4.43733 8.463 3.462C9.43833 2.48667 10.6173 1.99933 12 2C13.3827 2.00067 14.562 2.48833 15.538 3.463C16.514 4.43767 17.0013 5.61666 17 7V11Z" fill="black"/>
</svg>
